<?xml version="1.0" encoding="UTF-8" standalone="no"?>
<!-- Generator: Adobe Illustrator 19.0.0, SVG Export Plug-In . SVG Version: 6.00 Build 0)  -->

<svg
   xmlns:dc="http://purl.org/dc/elements/1.1/"
   xmlns:cc="http://creativecommons.org/ns#"
   xmlns:rdf="http://www.w3.org/1999/02/22-rdf-syntax-ns#"
   xmlns:svg="http://www.w3.org/2000/svg"
   xmlns="http://www.w3.org/2000/svg"
   xmlns:sodipodi="http://sodipodi.sourceforge.net/DTD/sodipodi-0.dtd"
   xmlns:inkscape="http://www.inkscape.org/namespaces/inkscape"
   version="1.1"
   id="Layer_1"
   x="0px"
   y="0px"
   viewBox="0 0 512 512"
   style="enable-background:new 0 0 512 512;"
   xml:space="preserve"
   sodipodi:docname="synth.svg"
   inkscape:version="0.92.4 (5da689c313, 2019-01-14)"><metadata
   id="metadata1043"><rdf:RDF><cc:Work
       rdf:about=""><dc:format>image/svg+xml</dc:format><dc:type
         rdf:resource="http://purl.org/dc/dcmitype/StillImage" /></cc:Work></rdf:RDF></metadata><defs
   id="defs1041" /><sodipodi:namedview
   pagecolor="#ffffff"
   bordercolor="#666666"
   borderopacity="1"
   objecttolerance="10"
   gridtolerance="10"
   guidetolerance="10"
   inkscape:pageopacity="0"
   inkscape:pageshadow="2"
   inkscape:window-width="1920"
   inkscape:window-height="1017"
   id="namedview1039"
   showgrid="false"
   inkscape:zoom="0.83007813"
   inkscape:cx="170.53137"
   inkscape:cy="163.12152"
   inkscape:window-x="-8"
   inkscape:window-y="-8"
   inkscape:window-maximized="1"
   inkscape:current-layer="Layer_1" />
<path
   style="fill:#e15050"
   d="m 97.1035,494.3455 0,-476.69 c 0,-9.751 7.904,-17.655 17.656,-17.655 l 282.482,0 c 9.751,0 17.655,7.904 17.655,17.655 v 476.69 c 0,9.751 -7.904,17.655 -17.655,17.655 h -282.483 c -9.751,0 -17.655,-7.904 -17.655,-17.655 z"
   id="path930"
   inkscape:connector-curvature="0" />
<g
   id="g936"
   transform="rotate(90,256,256.0005)">
	<path
   style="fill:#d24146"
   d="M 406.069,185.379 H 105.931 c -9.751,0 -17.655,-7.904 -17.655,-17.655 v -17.655 c 0,-9.751 7.904,-17.655 17.655,-17.655 h 300.138 c 9.751,0 17.655,7.904 17.655,17.655 v 17.655 c 0,9.751 -7.904,17.655 -17.655,17.655 z"
   id="path932"
   inkscape:connector-curvature="0" />
	<path
   style="fill:#d24146"
   d="M 494.345,414.897 H 17.655 V 247.172 c 0,-14.626 11.857,-26.483 26.483,-26.483 h 423.724 c 14.626,0 26.483,11.857 26.483,26.483 v 167.725 z"
   id="path934"
   inkscape:connector-curvature="0" />
</g>
<path
   style="fill:#fff5e6"
   d="m 114.7595,467.8625 0,-423.724 c 0,-4.875 3.953,-8.828 8.828,-8.828 l 141.241,0 c 4.875,0 8.828,3.953 8.828,8.828 l 0,423.724 c 0,4.875 -3.953,8.828 -8.828,8.828 h -141.241 c -4.876,0 -8.828,-3.953 -8.828,-8.828 z"
   id="path938"
   inkscape:connector-curvature="0" />
<circle
   style="fill:#a0eb64"
   cx="229.5175"
   cy="-353.10349"
   r="13.241"
   id="circle940"
   transform="rotate(90)" />
<circle
   style="fill:#ffd558"
   cx="176.55251"
   cy="-353.10349"
   r="13.241"
   id="circle942"
   transform="rotate(90)" />
<circle
   style="fill:#ffaf4b"
   cx="123.5865"
   cy="-353.10349"
   r="13.241"
   id="circle944"
   transform="rotate(90)" />
<circle
   style="fill:#00d2b9"
   cx="282.48349"
   cy="-353.10349"
   r="13.241"
   id="circle946"
   transform="rotate(90)" />
<circle
   style="fill:#8cd2ff"
   cx="335.44849"
   cy="-353.10349"
   r="13.241"
   id="circle948"
   transform="rotate(90)" />
<circle
   style="fill:#d28ce6"
   cx="388.41449"
   cy="-353.10349"
   r="13.241"
   id="circle950"
   transform="rotate(90)" />
<g
   id="g956"
   transform="rotate(90,256,256.0005)">
	<rect
   x="114.759"
   y="326.621"
   style="fill:#f0e1c8"
   width="17.655001"
   height="70.621002"
   id="rect952" />
	<rect
   x="167.724"
   y="326.621"
   style="fill:#f0e1c8"
   width="17.655001"
   height="70.621002"
   id="rect954" />
</g>
<g
   id="g962"
   transform="rotate(90,256,256.0005)">
	<path
   style="fill:#5b5d6e"
   d="m 128,335.448 h -8.828 c -4.875,0 -8.828,-3.953 -8.828,-8.828 v -88.276 h 26.483 v 88.276 c 0.001,4.876 -3.952,8.828 -8.827,8.828 z"
   id="path958"
   inkscape:connector-curvature="0" />
	<path
   style="fill:#5b5d6e"
   d="m 180.966,335.448 h -8.828 c -4.875,0 -8.828,-3.953 -8.828,-8.828 v -88.276 h 26.483 v 88.276 c 0,4.876 -3.952,8.828 -8.827,8.828 z"
   id="path960"
   inkscape:connector-curvature="0" />
</g>
<g
   id="g968"
   transform="rotate(90,256,256.0005)">
	<rect
   x="220.69"
   y="326.621"
   style="fill:#f0e1c8"
   width="17.655001"
   height="70.621002"
   id="rect964" />
	<rect
   x="273.655"
   y="326.621"
   style="fill:#f0e1c8"
   width="17.655001"
   height="70.621002"
   id="rect966" />
</g>
<g
   id="g974"
   transform="rotate(90,256,256.0005)">
	<path
   style="fill:#5b5d6e"
   d="m 233.931,335.448 h -8.828 c -4.875,0 -8.828,-3.953 -8.828,-8.828 v -88.276 h 26.483 v 88.276 c 10e-4,4.876 -3.952,8.828 -8.827,8.828 z"
   id="path970"
   inkscape:connector-curvature="0" />
	<path
   style="fill:#5b5d6e"
   d="m 286.897,335.448 h -8.828 c -4.875,0 -8.828,-3.953 -8.828,-8.828 v -88.276 h 26.483 v 88.276 c 0,4.876 -3.952,8.828 -8.827,8.828 z"
   id="path972"
   inkscape:connector-curvature="0" />
</g>
<g
   id="g980"
   transform="rotate(90,256,256.0005)">
	<rect
   x="326.621"
   y="326.621"
   style="fill:#f0e1c8"
   width="17.655001"
   height="70.621002"
   id="rect976" />
	<rect
   x="379.586"
   y="326.621"
   style="fill:#f0e1c8"
   width="17.655001"
   height="70.621002"
   id="rect978" />
</g>
<g
   id="g986"
   transform="rotate(90,256,256.0005)">
	<path
   style="fill:#5b5d6e"
   d="m 339.862,335.448 h -8.828 c -4.875,0 -8.828,-3.953 -8.828,-8.828 v -88.276 h 26.483 v 88.276 c 10e-4,4.876 -3.952,8.828 -8.827,8.828 z"
   id="path982"
   inkscape:connector-curvature="0" />
	<path
   style="fill:#5b5d6e"
   d="M 392.828,335.448 H 384 c -4.875,0 -8.828,-3.953 -8.828,-8.828 v -88.276 h 26.483 v 88.276 c 0,4.876 -3.952,8.828 -8.827,8.828 z"
   id="path984"
   inkscape:connector-curvature="0" />
</g>
<rect
   x="432.55249"
   y="-185.3795"
   style="fill:#f0e1c8"
   width="17.655001"
   height="70.621002"
   id="rect988"
   transform="rotate(90)" />
<path
   style="fill:#5b5d6e"
   d="m 176.5525,445.7935 v -8.828 c 0,-4.875 3.953,-8.828 8.828,-8.828 h 88.276 v 26.483 h -88.276 c -4.876,0.001 -8.828,-3.952 -8.828,-8.827 z"
   id="path990"
   inkscape:connector-curvature="0" />
<rect
   x="61.793499"
   y="-185.3795"
   style="fill:#f0e1c8"
   width="17.655001"
   height="70.621002"
   id="rect992"
   transform="rotate(90)" />
<g
   id="g1000"
   transform="rotate(90,256,256.0005)">
	<path
   style="fill:#5b5d6e"
   d="m 75.034,335.448 h -8.828 c -4.875,0 -8.828,-3.953 -8.828,-8.828 v -88.276 h 26.483 v 88.276 c 10e-4,4.876 -3.951,8.828 -8.827,8.828 z"
   id="path994"
   inkscape:connector-curvature="0" />
	<path
   style="fill:#5b5d6e"
   d="m 61.793,194.207 h -35.31 c -4.875,0 -8.828,-3.953 -8.828,-8.828 v -52.966 c 0,-4.875 3.953,-8.828 8.828,-8.828 h 35.31 c 4.875,0 8.828,3.953 8.828,8.828 v 52.966 c 0,4.875 -3.953,8.828 -8.828,8.828 z"
   id="path996"
   inkscape:connector-curvature="0" />
	<path
   style="fill:#5b5d6e"
   d="m 485.517,194.207 h -35.31 c -4.875,0 -8.828,-3.953 -8.828,-8.828 v -52.966 c 0,-4.875 3.953,-8.828 8.828,-8.828 h 35.31 c 4.875,0 8.828,3.953 8.828,8.828 v 52.966 c 0,4.875 -3.953,8.828 -8.828,8.828 z"
   id="path998"
   inkscape:connector-curvature="0" />
</g>
<g
   id="g1006"
   transform="rotate(90,256,256.0005)">
	<circle
   style="fill:#707487"
   cx="44.138"
   cy="158.897"
   r="17.655001"
   id="circle1002" />
	<circle
   style="fill:#707487"
   cx="467.862"
   cy="158.897"
   r="17.655001"
   id="circle1004" />
</g>
<g
   id="g1008">
</g>
<g
   id="g1010">
</g>
<g
   id="g1012">
</g>
<g
   id="g1014">
</g>
<g
   id="g1016">
</g>
<g
   id="g1018">
</g>
<g
   id="g1020">
</g>
<g
   id="g1022">
</g>
<g
   id="g1024">
</g>
<g
   id="g1026">
</g>
<g
   id="g1028">
</g>
<g
   id="g1030">
</g>
<g
   id="g1032">
</g>
<g
   id="g1034">
</g>
<g
   id="g1036">
</g>
</svg>