<?xml version="1.0" encoding="UTF-8" standalone="no"?>
<!-- Generator: Adobe Illustrator 19.0.0, SVG Export Plug-In . SVG Version: 6.00 Build 0)  -->

<svg
   xmlns:dc="http://purl.org/dc/elements/1.1/"
   xmlns:cc="http://creativecommons.org/ns#"
   xmlns:rdf="http://www.w3.org/1999/02/22-rdf-syntax-ns#"
   xmlns:svg="http://www.w3.org/2000/svg"
   xmlns="http://www.w3.org/2000/svg"
   xmlns:sodipodi="http://sodipodi.sourceforge.net/DTD/sodipodi-0.dtd"
   xmlns:inkscape="http://www.inkscape.org/namespaces/inkscape"
   version="1.1"
   id="Layer_1"
   x="0px"
   y="0px"
   viewBox="0 0 572 437.793"
   xml:space="preserve"
   sodipodi:docname="synth.svg"
   inkscape:version="0.92.4 (5da689c313, 2019-01-14)"
   width="572"
   height="437.793"><metadata
   id="metadata1043"><rdf:RDF><cc:Work
       rdf:about=""><dc:format>image/svg+xml</dc:format><dc:type
         rdf:resource="http://purl.org/dc/dcmitype/StillImage" /><dc:title></dc:title></cc:Work></rdf:RDF></metadata><defs
   id="defs1041" /><sodipodi:namedview
   pagecolor="#ffffff"
   bordercolor="#666666"
   borderopacity="1"
   objecttolerance="10"
   gridtolerance="10"
   guidetolerance="10"
   inkscape:pageopacity="0"
   inkscape:pageshadow="2"
   inkscape:window-width="1920"
   inkscape:window-height="1017"
   id="namedview1039"
   showgrid="false"
   inkscape:zoom="0.83007813"
   inkscape:cx="-39.205099"
   inkscape:cy="126.01852"
   inkscape:window-x="-8"
   inkscape:window-y="-8"
   inkscape:window-maximized="1"
   inkscape:current-layer="Layer_1"
   fit-margin-top="60"
   fit-margin-bottom="60"
   fit-margin-left="30"
   fit-margin-right="30" />
<path
   style="fill:#e15050"
   d="M 524.345,377.793 H 47.655 C 37.904,377.793 30,369.889 30,360.137 V 77.655 C 30,67.904 37.904,60 47.655,60 h 476.69 C 534.096,60 542,67.904 542,77.655 v 282.483 c 0,9.751 -7.904,17.655 -17.655,17.655 z"
   id="path930"
   inkscape:connector-curvature="0" />
<g
   id="g936"
   transform="translate(30,-37.104)">
	<path
   style="fill:#d24146"
   d="M 406.069,185.379 H 105.931 c -9.751,0 -17.655,-7.904 -17.655,-17.655 v -17.655 c 0,-9.751 7.904,-17.655 17.655,-17.655 h 300.138 c 9.751,0 17.655,7.904 17.655,17.655 v 17.655 c 0,9.751 -7.904,17.655 -17.655,17.655 z"
   id="path932"
   inkscape:connector-curvature="0" />
	<path
   style="fill:#d24146"
   d="M 494.345,414.897 H 17.655 V 247.172 c 0,-14.626 11.857,-26.483 26.483,-26.483 h 423.724 c 14.626,0 26.483,11.857 26.483,26.483 z"
   id="path934"
   inkscape:connector-curvature="0" />
</g>
<path
   style="fill:#fff5e6"
   d="M 497.862,360.137 H 74.138 c -4.875,0 -8.828,-3.953 -8.828,-8.828 V 210.068 c 0,-4.875 3.953,-8.828 8.828,-8.828 h 423.724 c 4.875,0 8.828,3.953 8.828,8.828 v 141.241 c 0,4.876 -3.953,8.828 -8.828,8.828 z"
   id="path938"
   inkscape:connector-curvature="0" />
<circle
   style="fill:#a0eb64"
   cx="259.517"
   cy="121.79301"
   r="13.241"
   id="circle940" />
<circle
   style="fill:#ffd558"
   cx="206.552"
   cy="121.79301"
   r="13.241"
   id="circle942" />
<circle
   style="fill:#ffaf4b"
   cx="153.586"
   cy="121.79301"
   r="13.241"
   id="circle944" />
<circle
   style="fill:#00d2b9"
   cx="312.483"
   cy="121.79301"
   r="13.241"
   id="circle946" />
<circle
   style="fill:#8cd2ff"
   cx="365.448"
   cy="121.79301"
   r="13.241"
   id="circle948" />
<circle
   style="fill:#d28ce6"
   cx="418.414"
   cy="121.79301"
   r="13.241"
   id="circle950" />
<g
   id="g956"
   transform="translate(30,-37.104)">
	<rect
   x="114.759"
   y="326.621"
   style="fill:#f0e1c8"
   width="17.655001"
   height="70.621002"
   id="rect952" />
	<rect
   x="167.724"
   y="326.621"
   style="fill:#f0e1c8"
   width="17.655001"
   height="70.621002"
   id="rect954" />
</g>
<g
   id="g962"
   transform="translate(30,-37.104)">
	<path
   style="fill:#5b5d6e"
   d="m 128,335.448 h -8.828 c -4.875,0 -8.828,-3.953 -8.828,-8.828 v -88.276 h 26.483 v 88.276 c 0.001,4.876 -3.952,8.828 -8.827,8.828 z"
   id="path958"
   inkscape:connector-curvature="0" />
	<path
   style="fill:#5b5d6e"
   d="m 180.966,335.448 h -8.828 c -4.875,0 -8.828,-3.953 -8.828,-8.828 v -88.276 h 26.483 v 88.276 c 0,4.876 -3.952,8.828 -8.827,8.828 z"
   id="path960"
   inkscape:connector-curvature="0" />
</g>
<g
   id="g968"
   transform="translate(30,-37.104)">
	<rect
   x="220.69"
   y="326.621"
   style="fill:#f0e1c8"
   width="17.655001"
   height="70.621002"
   id="rect964" />
	<rect
   x="273.655"
   y="326.621"
   style="fill:#f0e1c8"
   width="17.655001"
   height="70.621002"
   id="rect966" />
</g>
<g
   id="g974"
   transform="translate(30,-37.104)">
	<path
   style="fill:#5b5d6e"
   d="m 233.931,335.448 h -8.828 c -4.875,0 -8.828,-3.953 -8.828,-8.828 v -88.276 h 26.483 v 88.276 c 10e-4,4.876 -3.952,8.828 -8.827,8.828 z"
   id="path970"
   inkscape:connector-curvature="0" />
	<path
   style="fill:#5b5d6e"
   d="m 286.897,335.448 h -8.828 c -4.875,0 -8.828,-3.953 -8.828,-8.828 v -88.276 h 26.483 v 88.276 c 0,4.876 -3.952,8.828 -8.827,8.828 z"
   id="path972"
   inkscape:connector-curvature="0" />
</g>
<g
   id="g980"
   transform="translate(30,-37.104)">
	<rect
   x="326.621"
   y="326.621"
   style="fill:#f0e1c8"
   width="17.655001"
   height="70.621002"
   id="rect976" />
	<rect
   x="379.586"
   y="326.621"
   style="fill:#f0e1c8"
   width="17.655001"
   height="70.621002"
   id="rect978" />
</g>
<g
   id="g986"
   transform="translate(30,-37.104)">
	<path
   style="fill:#5b5d6e"
   d="m 339.862,335.448 h -8.828 c -4.875,0 -8.828,-3.953 -8.828,-8.828 v -88.276 h 26.483 v 88.276 c 10e-4,4.876 -3.952,8.828 -8.827,8.828 z"
   id="path982"
   inkscape:connector-curvature="0" />
	<path
   style="fill:#5b5d6e"
   d="M 392.828,335.448 H 384 c -4.875,0 -8.828,-3.953 -8.828,-8.828 v -88.276 h 26.483 v 88.276 c 0,4.876 -3.952,8.828 -8.827,8.828 z"
   id="path984"
   inkscape:connector-curvature="0" />
</g>
<rect
   x="462.552"
   y="289.517"
   style="fill:#f0e1c8"
   width="17.655001"
   height="70.621002"
   id="rect988" />
<path
   style="fill:#5b5d6e"
   d="m 475.793,298.344 h -8.828 c -4.875,0 -8.828,-3.953 -8.828,-8.828 V 201.24 h 26.483 v 88.276 c 10e-4,4.876 -3.952,8.828 -8.827,8.828 z"
   id="path990"
   inkscape:connector-curvature="0" />
<rect
   x="91.792999"
   y="289.517"
   style="fill:#f0e1c8"
   width="17.655001"
   height="70.621002"
   id="rect992" />
<g
   id="g1000"
   transform="translate(30,-37.104)">
	<path
   style="fill:#5b5d6e"
   d="m 75.034,335.448 h -8.828 c -4.875,0 -8.828,-3.953 -8.828,-8.828 v -88.276 h 26.483 v 88.276 c 10e-4,4.876 -3.951,8.828 -8.827,8.828 z"
   id="path994"
   inkscape:connector-curvature="0" />
	<path
   style="fill:#5b5d6e"
   d="m 61.793,194.207 h -35.31 c -4.875,0 -8.828,-3.953 -8.828,-8.828 v -52.966 c 0,-4.875 3.953,-8.828 8.828,-8.828 h 35.31 c 4.875,0 8.828,3.953 8.828,8.828 v 52.966 c 0,4.875 -3.953,8.828 -8.828,8.828 z"
   id="path996"
   inkscape:connector-curvature="0" />
	<path
   style="fill:#5b5d6e"
   d="m 485.517,194.207 h -35.31 c -4.875,0 -8.828,-3.953 -8.828,-8.828 v -52.966 c 0,-4.875 3.953,-8.828 8.828,-8.828 h 35.31 c 4.875,0 8.828,3.953 8.828,8.828 v 52.966 c 0,4.875 -3.953,8.828 -8.828,8.828 z"
   id="path998"
   inkscape:connector-curvature="0" />
</g>
<g
   id="g1006"
   transform="translate(30,-37.104)">
	<circle
   style="fill:#707487"
   cx="44.138"
   cy="158.897"
   r="17.655001"
   id="circle1002" />
	<circle
   style="fill:#707487"
   cx="467.862"
   cy="158.897"
   r="17.655001"
   id="circle1004" />
</g>
<g
   id="g1008"
   transform="translate(30,-37.104)">
</g>
<g
   id="g1010"
   transform="translate(30,-37.104)">
</g>
<g
   id="g1012"
   transform="translate(30,-37.104)">
</g>
<g
   id="g1014"
   transform="translate(30,-37.104)">
</g>
<g
   id="g1016"
   transform="translate(30,-37.104)">
</g>
<g
   id="g1018"
   transform="translate(30,-37.104)">
</g>
<g
   id="g1020"
   transform="translate(30,-37.104)">
</g>
<g
   id="g1022"
   transform="translate(30,-37.104)">
</g>
<g
   id="g1024"
   transform="translate(30,-37.104)">
</g>
<g
   id="g1026"
   transform="translate(30,-37.104)">
</g>
<g
   id="g1028"
   transform="translate(30,-37.104)">
</g>
<g
   id="g1030"
   transform="translate(30,-37.104)">
</g>
<g
   id="g1032"
   transform="translate(30,-37.104)">
</g>
<g
   id="g1034"
   transform="translate(30,-37.104)">
</g>
<g
   id="g1036"
   transform="translate(30,-37.104)">
</g>
</svg>