<?xml version="1.0" encoding="UTF-8" standalone="no"?>
<!-- Created with Inkscape (http://www.inkscape.org/) -->

<svg
   xmlns:dc="http://purl.org/dc/elements/1.1/"
   xmlns:cc="http://creativecommons.org/ns#"
   xmlns:rdf="http://www.w3.org/1999/02/22-rdf-syntax-ns#"
   xmlns:svg="http://www.w3.org/2000/svg"
   xmlns="http://www.w3.org/2000/svg"
   xmlns:xlink="http://www.w3.org/1999/xlink"
   xmlns:sodipodi="http://sodipodi.sourceforge.net/DTD/sodipodi-0.dtd"
   xmlns:inkscape="http://www.inkscape.org/namespaces/inkscape"
   width="357"
   height="480"
   viewBox="0 0 94.456248 127"
   version="1.1"
   id="svg8"
   sodipodi:docname="vawe_1.svg"
   inkscape:version="0.92.4 (5da689c313, 2019-01-14)">
  <defs
     id="defs2" />
  <sodipodi:namedview
     id="base"
     pagecolor="#ffffff"
     bordercolor="#666666"
     borderopacity="1.0"
     inkscape:pageopacity="0.0"
     inkscape:pageshadow="2"
     inkscape:zoom="1.4"
     inkscape:cx="-45.824615"
     inkscape:cy="210.17048"
     inkscape:document-units="mm"
     inkscape:current-layer="layer1"
     showgrid="false"
     units="px"
     inkscape:window-width="1920"
     inkscape:window-height="1017"
     inkscape:window-x="-8"
     inkscape:window-y="-8"
     inkscape:window-maximized="1" />
  <metadata
     id="metadata5">
    <rdf:RDF>
      <cc:Work
         rdf:about="">
        <dc:format>image/svg+xml</dc:format>
        <dc:type
           rdf:resource="http://purl.org/dc/dcmitype/StillImage" />
        <dc:title></dc:title>
      </cc:Work>
    </rdf:RDF>
  </metadata>
  <g
     inkscape:label="Layer 1"
     inkscape:groupmode="layer"
     id="layer1"
     transform="translate(0,-169.99997)">
    <rect
       style="opacity:1;fill:#ff0000;fill-opacity:1;stroke:none;stroke-width:10;stroke-linecap:round;stroke-linejoin:round;stroke-miterlimit:4;stroke-dasharray:none;stroke-opacity:1;paint-order:normal"
       id="rect4518"
       width="91.940712"
       height="123.74579"
       x="-113.83569"
       y="177.88716" />
    <path
       style="fill:none;stroke:#ffffff;stroke-width:5.16499996;stroke-linecap:round;stroke-linejoin:miter;stroke-miterlimit:4;stroke-dasharray:none;stroke-opacity:1"
       d="M 47.331601,172.6791 V 294.34236"
       id="path4534"
       inkscape:connector-curvature="0"
       sodipodi:nodetypes="cc" />
    <path
       style="fill:none;fill-opacity:1;stroke:#0000d6;stroke-width:2.46499991;stroke-linecap:round;stroke-linejoin:miter;stroke-miterlimit:4;stroke-dasharray:none;stroke-opacity:1"
       d="M 51.641323,175.6262 H 91.598116"
       id="path4536"
       inkscape:connector-curvature="0"
       sodipodi:nodetypes="cc"
       inkscape:tile-cx="73.131623"
       inkscape:tile-cy="5.6262299"
       inkscape:tile-w="42.4569"
       inkscape:tile-h="2.4652464"
       inkscape:tile-x0="51.903173"
       inkscape:tile-y0="4.3936067" />
    <use
       x="0"
       y="0"
       inkscape:tiled-clone-of="#path4536"
       xlink:href="#path4536"
       id="use4618"
       width="100%"
       height="100%" />
    <use
       x="0"
       y="0"
       inkscape:tiled-clone-of="#path4536"
       xlink:href="#path4536"
       transform="translate(-3.6499759e-8,2.5885087)"
       id="use4620"
       width="100%"
       height="100%" />
    <use
       x="0"
       y="0"
       inkscape:tiled-clone-of="#path4536"
       xlink:href="#path4536"
       transform="translate(-3.6499759e-8,5.1770174)"
       id="use4622"
       width="100%"
       height="100%" />
    <use
       x="0"
       y="0"
       inkscape:tiled-clone-of="#path4536"
       xlink:href="#path4536"
       transform="translate(-3.6499759e-8,7.765526)"
       id="use4624"
       width="100%"
       height="100%" />
    <use
       x="0"
       y="0"
       inkscape:tiled-clone-of="#path4536"
       xlink:href="#path4536"
       transform="translate(-3.6499759e-8,10.354035)"
       id="use4626"
       width="100%"
       height="100%" />
    <use
       x="0"
       y="0"
       inkscape:tiled-clone-of="#path4536"
       xlink:href="#path4536"
       transform="translate(-3.6499759e-8,12.942543)"
       id="use4628"
       width="100%"
       height="100%" />
    <use
       x="0"
       y="0"
       inkscape:tiled-clone-of="#path4536"
       xlink:href="#path4536"
       transform="translate(-3.6499759e-8,15.531052)"
       id="use4630"
       width="100%"
       height="100%" />
    <use
       x="0"
       y="0"
       inkscape:tiled-clone-of="#path4536"
       xlink:href="#path4536"
       transform="translate(-3.6499759e-8,18.119561)"
       id="use4632"
       width="100%"
       height="100%" />
    <use
       x="0"
       y="0"
       inkscape:tiled-clone-of="#path4536"
       xlink:href="#path4536"
       transform="translate(-3.6499759e-8,20.708069)"
       id="use4634"
       width="100%"
       height="100%" />
    <use
       x="0"
       y="0"
       inkscape:tiled-clone-of="#path4536"
       xlink:href="#path4536"
       transform="translate(-3.6499759e-8,23.296578)"
       id="use4636"
       width="100%"
       height="100%" />
    <use
       x="0"
       y="0"
       inkscape:tiled-clone-of="#path4536"
       xlink:href="#path4536"
       transform="translate(-3.6499759e-8,25.885087)"
       id="use4638"
       width="100%"
       height="100%" />
    <use
       x="0"
       y="0"
       inkscape:tiled-clone-of="#path4536"
       xlink:href="#path4536"
       transform="translate(-3.6499759e-8,28.473595)"
       id="use4640"
       width="100%"
       height="100%" />
    <use
       x="0"
       y="0"
       inkscape:tiled-clone-of="#path4536"
       xlink:href="#path4536"
       transform="translate(-3.6499759e-8,31.062104)"
       id="use4642"
       width="100%"
       height="100%" />
    <use
       x="0"
       y="0"
       inkscape:tiled-clone-of="#path4536"
       xlink:href="#path4536"
       transform="translate(-3.6499759e-8,33.650613)"
       id="use4644"
       width="100%"
       height="100%" />
    <use
       x="0"
       y="0"
       inkscape:tiled-clone-of="#path4536"
       xlink:href="#path4536"
       transform="translate(-3.6499759e-8,36.239122)"
       id="use4646"
       width="100%"
       height="100%" />
    <use
       x="0"
       y="0"
       inkscape:tiled-clone-of="#path4536"
       xlink:href="#path4536"
       transform="translate(-3.6499759e-8,38.82763)"
       id="use4648"
       width="100%"
       height="100%" />
    <use
       x="0"
       y="0"
       inkscape:tiled-clone-of="#path4536"
       xlink:href="#path4536"
       transform="translate(-3.6499759e-8,41.416139)"
       id="use4650"
       width="100%"
       height="100%" />
    <use
       x="0"
       y="0"
       inkscape:tiled-clone-of="#path4536"
       xlink:href="#path4536"
       transform="translate(-3.6499759e-8,44.004648)"
       id="use4652"
       width="100%"
       height="100%" />
    <use
       x="0"
       y="0"
       inkscape:tiled-clone-of="#path4536"
       xlink:href="#path4536"
       transform="translate(-3.6499759e-8,46.593156)"
       id="use4654"
       width="100%"
       height="100%" />
    <use
       x="0"
       y="0"
       inkscape:tiled-clone-of="#path4536"
       xlink:href="#path4536"
       transform="translate(-3.6499759e-8,49.181665)"
       id="use4656"
       width="100%"
       height="100%" />
    <use
       x="0"
       y="0"
       inkscape:tiled-clone-of="#path4536"
       xlink:href="#path4536"
       transform="translate(-3.6499759e-8,51.770174)"
       id="use4658"
       width="100%"
       height="100%" />
    <use
       x="0"
       y="0"
       inkscape:tiled-clone-of="#path4536"
       xlink:href="#path4536"
       transform="translate(-3.6499759e-8,54.358682)"
       id="use4660"
       width="100%"
       height="100%" />
    <use
       x="0"
       y="0"
       inkscape:tiled-clone-of="#path4536"
       xlink:href="#path4536"
       transform="translate(-3.6499759e-8,56.947191)"
       id="use4662"
       width="100%"
       height="100%" />
    <use
       x="0"
       y="0"
       inkscape:tiled-clone-of="#path4536"
       xlink:href="#path4536"
       transform="translate(-3.6499759e-8,59.5357)"
       id="use4664"
       width="100%"
       height="100%" />
    <use
       x="0"
       y="0"
       inkscape:tiled-clone-of="#path4536"
       xlink:href="#path4536"
       transform="translate(-3.6499759e-8,62.124208)"
       id="use4666"
       width="100%"
       height="100%" />
    <use
       x="0"
       y="0"
       inkscape:tiled-clone-of="#path4536"
       xlink:href="#path4536"
       transform="translate(-3.6499759e-8,64.712717)"
       id="use4668"
       width="100%"
       height="100%" />
    <use
       x="0"
       y="0"
       inkscape:tiled-clone-of="#path4536"
       xlink:href="#path4536"
       transform="translate(-3.6499759e-8,67.301226)"
       id="use4670"
       width="100%"
       height="100%" />
    <use
       x="0"
       y="0"
       inkscape:tiled-clone-of="#path4536"
       xlink:href="#path4536"
       transform="translate(-3.6499759e-8,69.889734)"
       id="use4672"
       width="100%"
       height="100%" />
    <use
       x="0"
       y="0"
       inkscape:tiled-clone-of="#path4536"
       xlink:href="#path4536"
       transform="translate(-3.6499759e-8,72.478243)"
       id="use4674"
       width="100%"
       height="100%" />
    <use
       x="0"
       y="0"
       inkscape:tiled-clone-of="#path4536"
       xlink:href="#path4536"
       transform="translate(-3.6499759e-8,75.066752)"
       id="use4676"
       width="100%"
       height="100%" />
    <use
       x="0"
       y="0"
       inkscape:tiled-clone-of="#path4536"
       xlink:href="#path4536"
       transform="translate(-3.6499759e-8,77.65526)"
       id="use4678"
       width="100%"
       height="100%" />
    <use
       x="0"
       y="0"
       inkscape:tiled-clone-of="#path4536"
       xlink:href="#path4536"
       transform="translate(-3.6499759e-8,80.243769)"
       id="use4680"
       width="100%"
       height="100%" />
    <use
       x="0"
       y="0"
       inkscape:tiled-clone-of="#path4536"
       xlink:href="#path4536"
       transform="translate(-3.6499759e-8,82.832278)"
       id="use4682"
       width="100%"
       height="100%" />
    <use
       x="0"
       y="0"
       inkscape:tiled-clone-of="#path4536"
       xlink:href="#path4536"
       transform="translate(-3.6499759e-8,85.420786)"
       id="use4684"
       width="100%"
       height="100%" />
    <use
       x="0"
       y="0"
       inkscape:tiled-clone-of="#path4536"
       xlink:href="#path4536"
       transform="translate(-3.6499759e-8,88.009295)"
       id="use4686"
       width="100%"
       height="100%" />
    <use
       x="0"
       y="0"
       inkscape:tiled-clone-of="#path4536"
       xlink:href="#path4536"
       transform="translate(-3.6499759e-8,90.597804)"
       id="use4688"
       width="100%"
       height="100%" />
    <use
       x="0"
       y="0"
       inkscape:tiled-clone-of="#path4536"
       xlink:href="#path4536"
       transform="translate(-3.6499759e-8,93.186312)"
       id="use4690"
       width="100%"
       height="100%" />
    <use
       x="0"
       y="0"
       inkscape:tiled-clone-of="#path4536"
       xlink:href="#path4536"
       transform="translate(-3.6499759e-8,95.774821)"
       id="use4692"
       width="100%"
       height="100%" />
    <use
       x="0"
       y="0"
       inkscape:tiled-clone-of="#path4536"
       xlink:href="#path4536"
       transform="translate(-3.6499759e-8,98.36333)"
       id="use4694"
       width="100%"
       height="100%" />
    <use
       x="0"
       y="0"
       inkscape:tiled-clone-of="#path4536"
       xlink:href="#path4536"
       transform="translate(-3.6499759e-8,100.95184)"
       id="use4696"
       width="100%"
       height="100%" />
    <use
       x="0"
       y="0"
       inkscape:tiled-clone-of="#path4536"
       xlink:href="#path4536"
       transform="translate(-3.6499759e-8,103.54035)"
       id="use4698"
       width="100%"
       height="100%" />
    <use
       x="0"
       y="0"
       inkscape:tiled-clone-of="#path4536"
       xlink:href="#path4536"
       transform="translate(-3.6499759e-8,106.12886)"
       id="use4700"
       width="100%"
       height="100%" />
    <use
       x="0"
       y="0"
       inkscape:tiled-clone-of="#path4536"
       xlink:href="#path4536"
       transform="translate(-3.6499759e-8,108.71736)"
       id="use4702"
       width="100%"
       height="100%" />
    <use
       x="0"
       y="0"
       inkscape:tiled-clone-of="#path4536"
       xlink:href="#path4536"
       transform="translate(-3.6499759e-8,111.30587)"
       id="use4704"
       width="100%"
       height="100%" />
    <use
       x="0"
       y="0"
       inkscape:tiled-clone-of="#path4536"
       xlink:href="#path4536"
       transform="translate(-3.6499759e-8,113.89438)"
       id="use4706"
       width="100%"
       height="100%" />
    <use
       x="0"
       y="0"
       inkscape:tiled-clone-of="#path4536"
       xlink:href="#path4536"
       transform="translate(-3.6499759e-8,116.48289)"
       id="use4708"
       width="100%"
       height="100%" />
    <path
       inkscape:tile-y0="4.3936067"
       inkscape:tile-x0="51.903173"
       inkscape:tile-h="2.4652464"
       inkscape:tile-w="42.4569"
       inkscape:tile-cy="5.6262299"
       inkscape:tile-cx="73.131623"
       sodipodi:nodetypes="cc"
       inkscape:connector-curvature="0"
       id="path4720"
       d="M 43.021879,291.39526 H 3.0650862"
       style="fill:none;fill-opacity:1;stroke:#0000d6;stroke-width:2.46499991;stroke-linecap:round;stroke-linejoin:miter;stroke-miterlimit:4;stroke-dasharray:none;stroke-opacity:1" />
    <use
       id="use4722"
       xlink:href="#path4536"
       inkscape:tiled-clone-of="#path4536"
       y="0"
       x="0"
       transform="rotate(-180,47.331601,233.51073)"
       width="100%"
       height="100%" />
    <use
       id="use4724"
       transform="rotate(-180,47.331601,232.21648)"
       xlink:href="#path4536"
       inkscape:tiled-clone-of="#path4536"
       y="0"
       x="0"
       width="100%"
       height="100%" />
    <use
       id="use4726"
       transform="rotate(-180,47.331601,230.92222)"
       xlink:href="#path4536"
       inkscape:tiled-clone-of="#path4536"
       y="0"
       x="0"
       width="100%"
       height="100%" />
    <use
       id="use4728"
       transform="rotate(-180,47.331601,229.62797)"
       xlink:href="#path4536"
       inkscape:tiled-clone-of="#path4536"
       y="0"
       x="0"
       width="100%"
       height="100%" />
    <use
       id="use4730"
       transform="rotate(-180,47.331601,228.33371)"
       xlink:href="#path4536"
       inkscape:tiled-clone-of="#path4536"
       y="0"
       x="0"
       width="100%"
       height="100%" />
    <use
       id="use4732"
       transform="rotate(-180,47.331601,227.03946)"
       xlink:href="#path4536"
       inkscape:tiled-clone-of="#path4536"
       y="0"
       x="0"
       width="100%"
       height="100%" />
    <use
       id="use4734"
       transform="rotate(-180,47.331601,225.7452)"
       xlink:href="#path4536"
       inkscape:tiled-clone-of="#path4536"
       y="0"
       x="0"
       width="100%"
       height="100%" />
    <use
       id="use4736"
       transform="rotate(-180,47.331601,224.45095)"
       xlink:href="#path4536"
       inkscape:tiled-clone-of="#path4536"
       y="0"
       x="0"
       width="100%"
       height="100%" />
    <use
       id="use4738"
       transform="rotate(-180,47.331601,223.1567)"
       xlink:href="#path4536"
       inkscape:tiled-clone-of="#path4536"
       y="0"
       x="0"
       width="100%"
       height="100%" />
    <use
       id="use4740"
       transform="rotate(-180,47.331601,221.86244)"
       xlink:href="#path4536"
       inkscape:tiled-clone-of="#path4536"
       y="0"
       x="0"
       width="100%"
       height="100%" />
    <use
       id="use4742"
       transform="rotate(-180,47.331601,220.56819)"
       xlink:href="#path4536"
       inkscape:tiled-clone-of="#path4536"
       y="0"
       x="0"
       width="100%"
       height="100%" />
    <use
       id="use4744"
       transform="rotate(-180,47.331601,219.27393)"
       xlink:href="#path4536"
       inkscape:tiled-clone-of="#path4536"
       y="0"
       x="0"
       width="100%"
       height="100%" />
    <use
       id="use4746"
       transform="rotate(-180,47.331601,217.97968)"
       xlink:href="#path4536"
       inkscape:tiled-clone-of="#path4536"
       y="0"
       x="0"
       width="100%"
       height="100%" />
    <use
       id="use4748"
       transform="rotate(-180,47.331601,216.68542)"
       xlink:href="#path4536"
       inkscape:tiled-clone-of="#path4536"
       y="0"
       x="0"
       width="100%"
       height="100%" />
    <use
       id="use4750"
       transform="rotate(-180,47.331601,215.39117)"
       xlink:href="#path4536"
       inkscape:tiled-clone-of="#path4536"
       y="0"
       x="0"
       width="100%"
       height="100%" />
    <use
       id="use4752"
       transform="rotate(-180,47.331601,214.09692)"
       xlink:href="#path4536"
       inkscape:tiled-clone-of="#path4536"
       y="0"
       x="0"
       width="100%"
       height="100%" />
    <use
       id="use4754"
       transform="rotate(-180,47.331601,212.80266)"
       xlink:href="#path4536"
       inkscape:tiled-clone-of="#path4536"
       y="0"
       x="0"
       width="100%"
       height="100%" />
    <use
       id="use4756"
       transform="rotate(-180,47.331601,211.50841)"
       xlink:href="#path4536"
       inkscape:tiled-clone-of="#path4536"
       y="0"
       x="0"
       width="100%"
       height="100%" />
    <use
       id="use4758"
       transform="rotate(-180,47.331601,210.21415)"
       xlink:href="#path4536"
       inkscape:tiled-clone-of="#path4536"
       y="0"
       x="0"
       width="100%"
       height="100%" />
    <use
       id="use4760"
       transform="rotate(-180,47.331601,208.9199)"
       xlink:href="#path4536"
       inkscape:tiled-clone-of="#path4536"
       y="0"
       x="0"
       width="100%"
       height="100%" />
    <use
       id="use4762"
       transform="rotate(-180,47.331601,207.62564)"
       xlink:href="#path4536"
       inkscape:tiled-clone-of="#path4536"
       y="0"
       x="0"
       width="100%"
       height="100%" />
    <use
       id="use4764"
       transform="rotate(-180,47.331601,206.33139)"
       xlink:href="#path4536"
       inkscape:tiled-clone-of="#path4536"
       y="0"
       x="0"
       width="100%"
       height="100%" />
    <use
       id="use4766"
       transform="rotate(-180,47.331601,205.03713)"
       xlink:href="#path4536"
       inkscape:tiled-clone-of="#path4536"
       y="0"
       x="0"
       width="100%"
       height="100%" />
    <use
       id="use4768"
       transform="rotate(-180,47.331601,203.74288)"
       xlink:href="#path4536"
       inkscape:tiled-clone-of="#path4536"
       y="0"
       x="0"
       width="100%"
       height="100%" />
    <use
       id="use4770"
       transform="rotate(-180,47.331601,202.44863)"
       xlink:href="#path4536"
       inkscape:tiled-clone-of="#path4536"
       y="0"
       x="0"
       width="100%"
       height="100%" />
    <use
       id="use4772"
       transform="rotate(-180,47.331601,201.15437)"
       xlink:href="#path4536"
       inkscape:tiled-clone-of="#path4536"
       y="0"
       x="0"
       width="100%"
       height="100%" />
    <use
       id="use4774"
       transform="rotate(-180,47.331601,199.86012)"
       xlink:href="#path4536"
       inkscape:tiled-clone-of="#path4536"
       y="0"
       x="0"
       width="100%"
       height="100%" />
    <use
       id="use4776"
       transform="rotate(-180,47.331601,198.56586)"
       xlink:href="#path4536"
       inkscape:tiled-clone-of="#path4536"
       y="0"
       x="0"
       width="100%"
       height="100%" />
    <use
       id="use4778"
       transform="rotate(-180,47.331601,197.27161)"
       xlink:href="#path4536"
       inkscape:tiled-clone-of="#path4536"
       y="0"
       x="0"
       width="100%"
       height="100%" />
    <use
       id="use4780"
       transform="rotate(-180,47.331601,195.97735)"
       xlink:href="#path4536"
       inkscape:tiled-clone-of="#path4536"
       y="0"
       x="0"
       width="100%"
       height="100%" />
    <use
       id="use4782"
       transform="rotate(-180,47.331601,194.6831)"
       xlink:href="#path4536"
       inkscape:tiled-clone-of="#path4536"
       y="0"
       x="0"
       width="100%"
       height="100%" />
    <use
       id="use4784"
       transform="rotate(-180,47.331601,193.38885)"
       xlink:href="#path4536"
       inkscape:tiled-clone-of="#path4536"
       y="0"
       x="0"
       width="100%"
       height="100%" />
    <use
       id="use4786"
       transform="rotate(-180,47.331601,192.09459)"
       xlink:href="#path4536"
       inkscape:tiled-clone-of="#path4536"
       y="0"
       x="0"
       width="100%"
       height="100%" />
    <use
       id="use4788"
       transform="rotate(-180,47.331601,190.80034)"
       xlink:href="#path4536"
       inkscape:tiled-clone-of="#path4536"
       y="0"
       x="0"
       width="100%"
       height="100%" />
    <use
       id="use4790"
       transform="rotate(-180,47.331601,189.50608)"
       xlink:href="#path4536"
       inkscape:tiled-clone-of="#path4536"
       y="0"
       x="0"
       width="100%"
       height="100%" />
    <use
       id="use4792"
       transform="rotate(-180,47.331601,188.21183)"
       xlink:href="#path4536"
       inkscape:tiled-clone-of="#path4536"
       y="0"
       x="0"
       width="100%"
       height="100%" />
    <use
       id="use4794"
       transform="rotate(-180,47.331601,186.91757)"
       xlink:href="#path4536"
       inkscape:tiled-clone-of="#path4536"
       y="0"
       x="0"
       width="100%"
       height="100%" />
    <use
       id="use4796"
       transform="rotate(-180,47.331601,185.62332)"
       xlink:href="#path4536"
       inkscape:tiled-clone-of="#path4536"
       y="0"
       x="0"
       width="100%"
       height="100%" />
    <use
       id="use4798"
       transform="rotate(-180,47.331601,184.32907)"
       xlink:href="#path4536"
       inkscape:tiled-clone-of="#path4536"
       y="0"
       x="0"
       width="100%"
       height="100%" />
    <use
       id="use4800"
       transform="rotate(-180,47.331601,183.03481)"
       xlink:href="#path4536"
       inkscape:tiled-clone-of="#path4536"
       y="0"
       x="0"
       width="100%"
       height="100%" />
    <use
       id="use4802"
       transform="rotate(-180,47.331601,181.74055)"
       xlink:href="#path4536"
       inkscape:tiled-clone-of="#path4536"
       y="0"
       x="0"
       width="100%"
       height="100%" />
    <use
       id="use4804"
       transform="rotate(-180,47.331601,180.4463)"
       xlink:href="#path4536"
       inkscape:tiled-clone-of="#path4536"
       y="0"
       x="0"
       width="100%"
       height="100%" />
    <use
       id="use4806"
       transform="rotate(-180,47.331601,179.15205)"
       xlink:href="#path4536"
       inkscape:tiled-clone-of="#path4536"
       y="0"
       x="0"
       width="100%"
       height="100%" />
    <use
       id="use4808"
       transform="rotate(-180,47.331601,177.85779)"
       xlink:href="#path4536"
       inkscape:tiled-clone-of="#path4536"
       y="0"
       x="0"
       width="100%"
       height="100%" />
    <use
       id="use4810"
       transform="rotate(-180,47.331601,176.56354)"
       xlink:href="#path4536"
       inkscape:tiled-clone-of="#path4536"
       y="0"
       x="0"
       width="100%"
       height="100%" />
    <use
       id="use4812"
       transform="rotate(-180,47.331601,175.26928)"
       xlink:href="#path4536"
       inkscape:tiled-clone-of="#path4536"
       y="0"
       x="0"
       width="100%"
       height="100%" />
  </g>
</svg>
